<?xml version="1.0" encoding="iso-8859-1"?>
<!-- Generator: Adobe Illustrator 19.0.0, SVG Export Plug-In . SVG Version: 6.00 Build 0)  -->
<svg version="1.1" id="Capa_1" xmlns="http://www.w3.org/2000/svg" xmlns:xlink="http://www.w3.org/1999/xlink" x="0px" y="0px"
	 viewBox="0 0 330.16 330.16" style="enable-background:new 0 0 330.16 330.16;" xml:space="preserve">
<g>
	<path style="fill:#50D1EF;" d="M165.08,330.16C-81.8,330.16,66.68,0,165.08,0S411.96,330.16,165.08,330.16z"/>
	<path style="fill:#F16730;" d="M87.72,155.44l26.88-26.36c2.871-2.815,7.48-2.769,10.295,0.102
		c0.639,0.652,1.149,1.417,1.505,2.258l14.68,34.6l33.52,17.36c3.581,1.828,5.001,6.213,3.173,9.794
		c-0.429,0.841-1.018,1.59-1.733,2.206l-28.48,24.76l-6.16,37.24c-0.646,3.968-4.386,6.662-8.355,6.016
		c-0.907-0.147-1.777-0.465-2.565-0.936l-32.36-19.44l-37.36,5.64c-3.99,0.498-7.628-2.333-8.126-6.322
		c-0.105-0.84-0.062-1.692,0.126-2.518L61.08,203l-16.6-33.16c-2.135-3.407-1.104-7.9,2.303-10.034
		c0.983-0.616,2.1-0.988,3.257-1.086L87.72,155.44z M298.68,233.08c-4,28-15.72,53-38.52,70.56l-5.44-3.44l-32.96,4
		c-3.982,0.557-7.661-2.219-8.219-6.201c-0.142-1.017-0.068-2.053,0.219-3.039l8.24-32l-14.08-29.88
		c-1.687-3.65-0.095-7.976,3.555-9.662c0.82-0.379,1.704-0.602,2.605-0.658l33.16-2.08l24.24-22.76
		c2.93-2.753,7.537-2.61,10.29,0.32c0.633,0.673,1.131,1.461,1.47,2.32l12.24,30.96L298.68,233.08z M235.08,43.88
		c2.24,2.64,4.44,5.36,6.6,8.2c-0.132,1.037-0.487,2.033-1.04,2.92l-10.96,22.08l5.68,24.52c0.893,3.92-1.562,7.822-5.482,8.714
		c-0.826,0.188-1.678,0.23-2.518,0.126l-24.88-3.76l-21.56,12.96c-3.451,2.063-7.921,0.937-9.984-2.515
		c-0.471-0.788-0.789-1.659-0.936-2.565l-4-24.8l-19.24-16.68c-3.047-2.624-3.389-7.22-0.766-10.267
		c0.616-0.715,1.365-1.304,2.206-1.733l22.32-11.56l9.8-23.12c1.568-3.702,5.84-5.433,9.542-3.865
		c0.84,0.356,1.606,0.866,2.258,1.505L210,41.68L235.08,43.88z"/>
</g>
<g>
</g>
<g>
</g>
<g>
</g>
<g>
</g>
<g>
</g>
<g>
</g>
<g>
</g>
<g>
</g>
<g>
</g>
<g>
</g>
<g>
</g>
<g>
</g>
<g>
</g>
<g>
</g>
<g>
</g>
</svg>
